<?xml version="1.0" standalone="no"?>
<!DOCTYPE svg PUBLIC "-//W3C//DTD SVG 20010904//EN"
 "http://www.w3.org/TR/2001/REC-SVG-20010904/DTD/svg10.dtd">
<svg version="1.0" xmlns="http://www.w3.org/2000/svg"
 width="542.000000pt" height="461.000000pt" viewBox="0 0 542.000000 461.000000"
 preserveAspectRatio="xMidYMid meet">

<g transform="translate(0.000000,461.000000) scale(0.100000,-0.100000)"
fill="#000000" stroke="none">
<path d="M2056 4545 c-7 -20 35 -50 46 -32 4 6 8 20 8 30 0 21 -45 24 -54 2z"/>
<path d="M4513 4504 c-7 -18 11 -39 26 -30 17 11 13 46 -4 46 -9 0 -18 -7 -22
-16z"/>
<path d="M4084 4466 c-9 -24 12 -44 28 -28 10 10 8 16 -5 29 -15 15 -17 15
-23 -1z"/>
<path d="M3196 4431 c10 -10 21 -17 23 -15 6 6 -20 34 -32 34 -6 0 -2 -8 9
-19z"/>
<path d="M3132 4424 c-43 -30 -13 -104 42 -104 38 0 38 13 0 43 -38 31 -43 51
-16 66 9 6 12 11 7 11 -6 0 -21 -7 -33 -16z m33 -75 c11 -17 -1 -21 -15 -4 -8
9 -8 15 -2 15 6 0 14 -5 17 -11z"/>
<path d="M1090 4396 c0 -28 35 -45 53 -27 16 16 -3 45 -32 49 -17 3 -21 -2
-21 -22z"/>
<path d="M1493 4350 c-23 -9 -63 -65 -63 -87 0 -7 10 -24 23 -39 19 -22 31
-26 75 -26 32 0 62 6 78 17 24 15 26 22 21 62 -3 27 -13 54 -26 66 -23 23 -28
10 -10 -25 23 -42 -32 -108 -90 -108 -50 0 -68 70 -28 108 13 12 28 22 35 22
6 0 14 5 17 10 7 12 -2 12 -32 0z"/>
<path d="M2826 4342 c44 -35 38 -107 -9 -130 -12 -6 -17 -11 -11 -11 47 -3 85
107 49 142 -9 9 -24 17 -33 17 -14 0 -13 -3 4 -18z"/>
<path d="M2747 4322 c-10 -10 -17 -28 -17 -39 0 -23 36 -73 52 -73 6 0 6 6 -2
15 -8 10 -11 33 -8 65 5 54 0 60 -25 32z"/>
<path d="M2371 4299 c-39 -8 -76 -34 -105 -73 -42 -56 -19 -194 41 -248 10 -9
63 -38 116 -62 160 -75 231 -157 293 -340 13 -38 24 -75 24 -83 0 -19 -29 -16
-86 11 -52 24 -102 76 -130 134 -9 18 -18 31 -21 29 -11 -12 63 -130 96 -152
58 -40 190 -90 204 -76 8 8 5 11 -11 11 -12 0 -22 5 -22 10 0 6 4 10 9 10 5 0
7 10 3 22 -5 20 -6 20 -12 3 -5 -13 -11 -2 -23 41 -9 33 -17 70 -17 81 0 21
-72 165 -97 195 -8 9 -12 22 -8 28 14 22 -57 102 -107 119 -45 16 -33 -4 37
-58 67 -53 90 -80 34 -40 -17 12 -77 42 -132 66 -114 49 -131 62 -146 106
l-11 32 21 -28 c12 -15 34 -34 50 -42 35 -19 89 -20 89 -2 0 22 -23 37 -56 37
-38 0 -59 24 -75 85 -6 22 -18 55 -26 73 -14 29 -14 34 1 57 9 13 33 29 55 36
53 16 124 -9 187 -64 47 -41 48 -41 25 -9 -46 66 -133 105 -200 91z"/>
<path d="M5052 4198 c-28 -28 2 -78 48 -78 22 0 22 1 7 18 -21 23 -21 36 -1
53 13 10 17 10 25 -2 5 -8 7 -25 4 -37 -4 -15 -2 -21 5 -17 11 7 13 35 4 59
-7 19 -74 22 -92 4z"/>
<path d="M3619 4129 c-14 -27 -5 -86 17 -110 24 -26 57 -24 93 7 38 31 42 54
5 25 -15 -12 -34 -21 -44 -21 -36 0 -68 67 -49 102 6 12 6 18 0 18 -6 0 -15
-10 -22 -21z"/>
<path d="M3720 4135 c7 -9 15 -13 17 -11 7 7 -7 26 -19 26 -6 0 -6 -6 2 -15z"/>
<path d="M1828 4119 c-13 -7 -18 -23 -18 -53 0 -36 4 -45 25 -54 41 -19 70
-15 85 12 17 32 -1 79 -36 95 -30 13 -34 13 -56 0z m82 -62 c0 -27 -17 -47
-41 -47 -30 0 -39 49 -13 74 20 21 54 4 54 -27z"/>
<path d="M976 4040 c-37 -12 -46 -25 -46 -77 0 -98 120 -156 189 -92 33 31 29
99 -8 137 -17 16 -44 32 -62 36 -36 7 -35 7 -73 -4z m81 -22 c7 -6 18 -28 24
-49 30 -100 -69 -150 -116 -59 -43 83 25 162 92 108z"/>
<path d="M2660 4047 c0 -4 18 -44 40 -88 65 -128 107 -166 253 -223 44 -18 45
-28 17 -117 -26 -86 -52 -124 -97 -148 -35 -19 -36 -20 -12 -21 50 0 98 74
144 225 32 106 48 140 84 179 l26 29 -33 -22 c-18 -13 -45 -44 -60 -71 l-27
-48 -56 18 c-119 36 -163 77 -241 225 -21 39 -38 67 -38 62z"/>
<path d="M4083 3913 c9 -11 17 -30 17 -42 0 -31 -46 -74 -72 -68 -12 3 -17 2
-12 -3 28 -26 101 -10 110 25 8 32 -13 83 -40 97 -20 11 -20 10 -3 -9z"/>
<path d="M3281 3885 c40 -84 41 -91 37 -170 -6 -115 -31 -162 -113 -215 -92
-57 -99 -71 -91 -178 7 -95 -2 -130 -25 -93 -8 11 -17 21 -21 21 -4 0 14 -28
40 -62 94 -125 131 -257 111 -393 -14 -88 -70 -257 -116 -349 -83 -166 -130
-210 -228 -210 -97 -1 -115 41 -115 267 0 139 -1 144 -24 166 -21 20 -32 22
-88 18 -34 -2 -98 -17 -140 -32 -69 -25 -82 -27 -117 -16 -22 6 -61 32 -88 58
-26 25 -39 39 -28 31 28 -21 81 -48 96 -48 7 0 -8 14 -32 31 -24 17 -57 43
-73 58 l-29 26 5 -28 c4 -20 2 -27 -8 -23 -43 16 -84 16 -144 -3 -76 -24 -129
-27 -155 -7 -15 11 -21 31 -25 89 -8 97 -35 140 -97 158 -37 10 -50 9 -89 -6
-96 -36 -139 -97 -195 -272 -65 -203 -106 -292 -130 -277 -5 3 -22 -2 -37 -12
-18 -12 -47 -18 -84 -19 -32 0 -58 -4 -58 -8 0 -4 -9 -3 -20 3 -11 6 -20 19
-20 29 0 10 -7 24 -15 31 -17 14 -55 112 -55 143 0 13 -5 28 -12 35 -16 16 5
104 41 167 16 28 70 94 120 147 101 106 130 159 131 231 0 55 -18 96 -57 128
-18 14 -21 20 -9 15 10 -3 25 -1 32 5 8 6 20 9 29 6 20 -8 29 11 15 28 -17 21
-47 19 -146 -10 -90 -26 -114 -23 -114 14 0 33 54 119 120 191 69 75 69 75 70
43 0 -48 18 -49 30 -1 24 88 93 167 173 197 42 16 149 13 192 -5 21 -8 70 -46
110 -84 49 -46 98 -81 153 -108 45 -22 82 -37 82 -32 0 18 -48 65 -99 98 -64
40 -99 69 -112 95 -9 16 -2 17 128 11 l138 -7 72 32 c39 17 80 31 90 31 45 0
119 -35 160 -77 24 -24 39 -34 33 -23 -21 39 -80 89 -117 99 -60 17 -109 13
-176 -14 -89 -37 -158 -40 -337 -15 -251 36 -278 36 -340 7 -30 -14 -58 -24
-62 -21 -5 3 -7 0 -6 -8 2 -7 -5 -12 -14 -12 -10 1 -16 -2 -13 -6 3 -5 -17
-24 -43 -44 -64 -47 -117 -105 -179 -196 -72 -108 -84 -135 -86 -198 -2 -50 1
-58 20 -67 13 -5 23 -14 23 -20 0 -5 -25 -50 -55 -100 -30 -49 -55 -96 -55
-103 0 -19 -23 -12 -192 54 -121 48 -150 55 -211 56 -62 1 -80 -3 -134 -30
-68 -35 -179 -133 -222 -196 -108 -159 -228 -462 -236 -595 l-5 -76 19 95 c54
275 217 595 358 702 62 47 128 76 185 84 34 4 65 -3 143 -31 55 -20 121 -43
147 -50 26 -8 67 -23 92 -34 42 -18 46 -23 46 -56 0 -21 -4 -34 -10 -30 -6 4
-8 -10 -6 -37 2 -24 1 -30 -1 -14 l-5 29 -19 -29 c-21 -33 -25 -49 -8 -38 8 5
10 -2 6 -22 -5 -27 -4 -28 10 -9 9 12 14 14 11 5 -3 -8 -16 -21 -31 -28 -35
-17 -72 2 -148 73 -93 88 -215 111 -301 56 -77 -49 -110 -106 -194 -341 -26
-73 -58 -144 -71 -159 l-25 -26 7 30 c17 78 63 200 112 304 30 62 52 115 50
117 -12 13 -99 -104 -125 -169 -44 -104 -90 -339 -63 -323 4 3 6 -5 4 -17 -3
-13 0 -39 5 -58 6 -25 5 -40 -6 -57 -12 -19 -13 -30 -3 -61 16 -54 15 -67 -4
-51 -8 7 -15 9 -16 4 0 -5 -4 0 -9 11 -13 31 -11 170 4 270 27 173 62 288 127
417 18 35 25 58 17 56 -38 -13 -140 -245 -185 -418 -33 -129 -42 -335 -19
-434 40 -169 186 -346 287 -346 21 0 44 7 53 15 23 24 26 18 11 -22 -33 -92
-36 -95 -83 -89 -111 15 -218 103 -288 240 -21 41 -40 73 -42 71 -7 -6 71
-152 104 -195 48 -62 116 -116 196 -156 38 -19 68 -40 68 -48 0 -19 -18 -59
-62 -136 -40 -71 -90 -197 -109 -273 -30 -123 18 -244 152 -378 143 -145 326
-251 664 -384 400 -158 613 -211 815 -203 126 5 183 25 207 72 9 17 43 68 75
113 71 98 98 164 98 239 0 51 4 60 39 100 53 60 99 153 160 320 28 78 82 208
119 290 93 200 105 224 112 224 10 0 53 -167 90 -345 29 -139 76 -300 101
-346 7 -13 7 -49 0 -112 -8 -76 -6 -108 8 -182 10 -49 20 -84 22 -77 3 8 6
-23 7 -68 3 -97 20 -137 85 -197 75 -69 198 -93 487 -93 420 0 823 83 1126
234 142 70 224 131 271 202 53 80 56 143 13 309 -42 166 -41 170 40 202 36 14
70 30 75 36 7 7 4 7 -10 2 -120 -47 -127 -49 -136 -34 -20 32 -10 46 44 58
122 27 221 134 279 300 26 77 51 315 43 421 -14 194 -58 385 -115 506 -34 70
-99 148 -144 171 -52 27 -63 57 -16 43 48 -14 95 -47 144 -101 114 -127 170
-292 202 -594 25 -248 10 -376 -63 -525 -35 -72 -127 -178 -193 -223 -24 -17
-23 -17 10 -1 19 9 71 53 115 98 123 123 171 239 182 434 7 122 -9 277 -44
422 -47 200 -116 332 -224 434 -108 102 -235 136 -434 116 l-49 -5 -23 95
c-12 52 -22 98 -23 101 0 3 22 4 50 1 91 -8 123 37 82 118 -12 24 -23 34 -36
32 -44 -8 -81 55 -107 184 -10 52 -30 116 -44 143 -35 70 -46 72 -14 3 15 -31
37 -102 48 -157 26 -119 55 -173 108 -201 33 -17 38 -25 41 -58 l3 -39 -46 5
c-74 9 -115 61 -164 208 -12 36 -26 72 -32 80 -12 18 -13 22 37 -150 58 -197
58 -334 0 -404 -28 -34 -66 -31 -83 6 -51 110 -64 150 -89 265 -16 76 -32 129
-38 126 -5 -4 -7 1 -2 12 9 25 -22 128 -36 119 -8 -5 -9 -2 -5 9 3 10 2 17 -4
17 -6 0 -8 4 -4 9 7 13 -72 165 -100 191 -24 23 -143 60 -192 60 -17 0 -44 -4
-58 -10 -25 -10 -26 -12 -18 -57 4 -27 7 -73 5 -103 -2 -30 0 -71 4 -90 l8
-35 7 45 c6 39 7 37 5 -21 -3 -90 -22 -119 -80 -119 -73 0 -81 18 -81 174 0
137 -7 166 -46 187 -12 6 -32 8 -46 4 -21 -5 -24 -3 -18 15 13 41 -7 18 -31
-36 -55 -125 -153 -244 -201 -244 -13 0 -23 -4 -23 -8 0 -9 -99 0 -117 11 -6
4 -13 4 -16 0 -2 -5 -2 -3 -1 4 2 7 -1 15 -5 17 -5 3 -14 26 -21 51 -7 25 -17
48 -21 51 -5 3 -9 19 -9 35 0 20 -4 28 -12 23 -7 -4 -8 -3 -4 4 4 6 0 25 -8
41 -23 43 -35 108 -29 148 5 30 15 41 69 75 47 30 73 55 105 105 63 96 93 123
137 122 l37 0 -25 -17 c-42 -29 -60 -51 -60 -74 0 -21 2 -20 33 9 67 62 137
92 78 32 -32 -31 -57 -69 -46 -69 14 0 73 35 110 65 54 44 98 65 135 65 35 0
80 -20 101 -46 8 -10 36 -35 62 -56 40 -31 46 -39 30 -44 -10 -3 -36 -14 -58
-25 -22 -10 -51 -19 -65 -19 -29 0 -88 -34 -96 -55 -8 -19 10 -41 39 -49 18
-4 17 -2 -8 18 l-29 24 34 20 c18 12 59 24 89 27 31 3 75 13 99 22 30 10 67
14 120 11 65 -3 90 -10 162 -45 47 -23 105 -54 130 -69 l45 -27 -40 43 c-50
53 -142 116 -198 136 -27 10 -58 13 -89 9 -61 -7 -98 8 -173 75 -33 29 -74 59
-92 66 -47 20 -110 17 -160 -7 -41 -20 -48 -20 -128 -8 -62 9 -91 9 -109 1
-23 -10 -24 -9 -30 45 -7 59 -25 101 -52 124 -9 8 -15 10 -13 4z m-2105 -593
c-12 -11 -46 12 -46 30 0 21 0 21 25 -2 14 -13 23 -25 21 -28z m69 18 c-11 -5
-27 -9 -35 -9 -9 0 -8 4 5 9 11 5 27 9 35 9 9 0 8 -4 -5 -9z m2803 -56 c71
-29 125 -104 165 -229 18 -55 88 -397 83 -402 -2 -2 -40 1 -84 6 -62 8 -106 7
-194 -5 -62 -8 -149 -19 -193 -25 -44 -5 -141 -30 -215 -54 -178 -58 -240 -73
-330 -79 -41 -2 -67 -2 -57 1 9 2 18 12 18 21 4 41 -4 149 -12 163 -5 11 -1
52 11 110 32 145 32 146 124 189 95 44 134 81 219 211 34 51 67 95 74 97 26 7
44 -47 57 -171 17 -165 41 -202 123 -190 42 7 70 34 83 84 12 43 10 69 -16
201 -9 43 -12 83 -8 89 9 15 102 4 152 -17z m-2717 -33 c24 -25 29 -38 29 -79
0 -55 -2 -58 -144 -218 -77 -87 -130 -177 -142 -241 -3 -18 -7 -33 -8 -33 0 0
-28 11 -61 24 l-60 25 30 11 c45 17 84 59 96 103 6 24 8 73 4 123 -7 75 -5 87
18 136 43 93 131 178 185 178 13 0 37 -13 53 -29z m2566 -103 c-3 -7 -5 -2 -5
12 0 14 2 19 5 13 2 -7 2 -19 0 -25z m-587 -134 c0 -2 -13 -4 -30 -4 -16 0
-30 4 -30 8 0 5 14 7 30 4 17 -2 30 -6 30 -8z m-1467 -55 c35 -27 70 -163 44
-172 -16 -5 18 -44 55 -63 35 -18 102 -18 164 1 72 22 87 19 181 -30 100 -53
140 -57 245 -23 51 16 75 20 94 12 35 -12 61 -50 68 -99 3 -25 2 -33 -3 -21
-7 18 -9 16 -19 -14 -17 -46 -16 -138 0 -122 7 7 16 12 20 12 9 0 11 -94 2
-102 -3 -4 -38 5 -77 18 -163 56 -454 114 -722 144 -194 22 -325 41 -325 46 0
2 23 59 50 126 28 67 48 130 45 139 -3 9 1 22 10 29 8 7 15 18 15 25 0 8 18
29 40 48 22 19 40 39 40 45 0 7 7 9 17 5 11 -4 14 -3 9 5 -12 20 19 14 47 -9z
m-84 -2 c-2 -1 -13 -9 -24 -17 -19 -14 -19 -14 -6 3 7 9 18 17 24 17 6 0 8 -1
6 -3z m-59 -51 c0 -2 -8 -10 -17 -17 -16 -13 -17 -12 -4 4 13 16 21 21 21 13z
m-952 -42 c29 -14 73 -45 100 -69 l47 -43 -17 -43 c-41 -104 -118 -290 -131
-316 -8 -15 -56 -145 -107 -288 -116 -327 -117 -328 -141 -314 -11 5 -23 8
-27 6 -4 -2 -29 8 -57 22 -96 50 -150 160 -149 301 2 175 161 626 252 713 67
64 144 74 230 31z m2463 -225 c-5 -13 -10 -19 -10 -12 -1 15 10 45 15 40 3 -2
0 -15 -5 -28z m-2176 -91 c-13 -35 -64 -162 -113 -283 -49 -121 -93 -231 -98
-245 -8 -22 -9 -20 -14 20 -4 34 1 64 21 120 49 140 90 230 105 230 9 0 24 21
35 48 42 97 78 172 83 172 3 0 -6 -28 -19 -62z m3052 38 c14 -13 43 -126 68
-261 28 -152 66 -340 71 -344 9 -9 3 64 -20 245 -37 286 -37 291 -20 305 8 6
16 10 18 8 1 -2 12 -20 24 -41 13 -20 29 -38 36 -41 15 -6 36 32 36 63 0 11 4
20 8 20 8 0 43 -173 82 -400 10 -58 23 -161 30 -230 35 -374 71 -476 165 -468
46 4 56 -14 18 -31 l-28 -13 25 -14 25 -15 -27 5 c-14 3 -34 9 -44 13 -16 6
-15 3 4 -21 27 -35 32 -143 7 -152 -24 -10 -17 -23 20 -38 20 -9 39 -26 45
-41 5 -14 14 -25 20 -25 6 0 5 -8 -2 -20 -11 -18 -10 -23 11 -39 21 -16 22
-49 1 -36 -5 3 -12 -4 -15 -16 -5 -16 -12 -19 -28 -15 -81 22 -292 37 -511 34
-175 -1 -241 1 -244 10 -2 6 -25 27 -52 47 -38 28 -49 43 -52 68 -2 25 -10 35
-36 46 -24 11 -35 24 -42 51 -5 20 -19 45 -30 55 -19 18 -19 18 18 42 79 52
119 134 113 236 -3 41 1 50 23 68 15 12 34 35 43 52 l16 32 18 -80 c31 -147
58 -203 113 -236 64 -39 192 -14 207 41 17 63 8 206 -21 340 -17 74 -42 208
-56 298 -41 265 -90 403 -155 441 -32 18 -33 20 -20 54 9 22 13 23 68 19 32
-2 64 -9 70 -16z m-906 -23 c-12 -20 -14 -14 -5 12 4 9 9 14 11 11 3 -2 0 -13
-6 -23z m676 3 c25 -22 26 -25 11 -31 -34 -13 -18 -22 31 -17 46 4 50 2 75
-31 45 -59 84 -185 116 -376 16 -98 45 -241 65 -318 40 -158 47 -282 20 -347
-15 -36 -16 -36 -76 -36 -34 0 -73 7 -89 15 -40 21 -77 73 -95 131 -11 39 -84
482 -85 519 0 6 -4 3 -9 -5 -8 -15 -1 -109 14 -200 l8 -45 -26 31 c-15 17 -40
37 -57 44 -17 7 -33 22 -35 34 -10 42 -83 413 -96 484 -16 93 -6 108 68 97
l50 -6 18 -57 c20 -61 33 -48 16 15 -10 33 -9 40 9 55 11 9 20 28 20 42 0 32
11 33 47 2z m-2327 -7 c0 -11 -4 -18 -10 -14 -5 3 -7 12 -3 20 7 21 13 19 13
-6z m3108 -114 c64 -240 87 -318 90 -300 1 11 -6 51 -17 88 -18 65 -18 68 0
77 10 6 53 10 96 10 59 0 83 -5 99 -18 42 -33 93 -112 122 -189 120 -311 80
-655 -88 -767 -64 -42 -72 -40 -77 29 -2 34 -10 85 -17 115 l-13 55 5 -91 c5
-96 -4 -204 -18 -204 -13 0 -48 148 -60 260 -34 299 -93 679 -130 835 -22 91
-36 218 -22 195 5 -8 18 -51 30 -95z m-1931 63 c-3 -7 -5 -2 -5 12 0 14 2 19
5 13 2 -7 2 -19 0 -25z m1663 -28 c1 -19 7 -62 15 -95 l13 -60 2 50 2 50 9
-60 c14 -99 40 -205 50 -205 5 0 9 6 10 13 1 14 22 -108 49 -278 10 -66 18
-102 19 -81 2 60 10 38 26 -65 8 -52 18 -107 24 -121 7 -20 7 -38 -3 -65 l-13
-38 -11 65 c-9 53 -10 56 -8 16 3 -30 1 -44 -5 -35 -5 8 -9 28 -9 46 0 39 -9
65 -21 58 -9 -6 -11 6 -34 168 -33 228 -55 364 -69 422 -24 100 -18 35 19
-188 65 -398 86 -539 81 -544 -15 -15 -55 190 -76 392 -6 55 -28 211 -50 347
-22 136 -40 253 -40 260 1 30 20 -19 20 -52z m-2775 30 c23 0 45 -11 78 -40
45 -40 68 -40 47 1 -7 11 -10 22 -8 24 8 6 337 -36 383 -50 78 -23 130 -56
133 -86 4 -38 -20 -54 -59 -40 -41 14 -111 14 -142 0 -17 -8 -32 -34 -55 -97
-39 -105 -93 -294 -87 -300 6 -6 23 35 75 183 23 66 49 133 57 149 14 27 16
28 71 21 69 -9 92 -20 92 -44 0 -17 -3 -18 -30 -8 -23 9 -33 8 -42 -1 -9 -9
-6 -12 14 -12 15 0 29 -4 32 -8 11 -18 -69 -333 -185 -732 -66 -224 -188 -546
-223 -587 -33 -38 -116 -43 -170 -11 -58 34 -81 71 -80 125 1 42 0 44 -13 27
-19 -26 -10 -78 21 -119 45 -59 147 -92 214 -70 20 6 20 3 -9 -43 -17 -28 -43
-62 -58 -76 -28 -27 -28 -27 -89 -12 -71 16 -84 4 -22 -22 22 -9 38 -21 37
-27 -7 -20 -66 -16 -125 9 -33 14 -115 41 -182 60 -68 19 -126 40 -130 47 -5
6 -13 8 -20 4 -8 -5 -11 -4 -7 2 8 13 -38 34 -58 27 -9 -4 -34 6 -56 21 -22
14 -47 24 -55 21 -7 -3 -16 -1 -19 5 -4 5 -21 16 -38 24 -57 25 -156 83 -178
104 -12 11 -26 18 -30 15 -4 -2 -10 0 -14 6 -11 18 14 11 86 -26 39 -19 73
-34 75 -31 2 2 -41 34 -96 71 -55 37 -100 72 -100 78 0 6 -8 17 -18 25 -12 9
-13 12 -3 11 10 -2 17 11 23 40 7 32 19 50 50 75 22 17 51 54 65 81 23 45 26
47 41 32 13 -12 16 -31 14 -76 -3 -63 9 -100 33 -100 20 0 19 10 -2 25 -15 11
-15 17 0 78 9 36 33 101 53 144 33 72 53 95 106 121 3 2 -2 -18 -11 -45 -10
-26 -22 -61 -25 -78 l-8 -30 28 25 c15 14 48 70 75 125 46 97 253 639 290 760
12 38 29 69 47 85 16 14 48 49 72 78 39 48 46 53 73 48 16 -3 44 -6 62 -6z
m3285 0 c-8 -5 -23 -10 -32 -10 -34 0 -17 -15 47 -44 83 -37 146 -103 191
-201 38 -82 44 -107 14 -58 -21 34 -81 82 -143 114 -20 11 -60 42 -87 69 -30
30 -65 54 -91 61 -86 26 -49 79 55 79 43 0 57 -3 46 -10z m-1362 -26 c20 -14
22 -21 16 -61 -5 -33 -4 -44 5 -39 6 4 14 -1 18 -11 3 -10 11 -24 17 -32 9
-11 12 -10 16 8 10 43 25 21 42 -61 20 -99 22 -121 7 -95 -5 9 -13 17 -17 17
-7 0 2 -144 12 -183 2 -9 0 -15 -5 -11 -5 3 -9 13 -9 21 0 13 -7 10 -29 -11
l-29 -28 -7 23 c-4 12 -7 42 -7 65 1 27 -4 47 -15 55 -14 12 -15 5 -8 -77 6
-76 4 -92 -9 -103 -9 -8 -16 -22 -16 -32 0 -10 -4 -20 -9 -23 -13 -8 -73 258
-87 382 -3 34 -11 62 -15 62 -15 0 -10 -67 16 -193 30 -152 48 -398 36 -512
-1 -5 -10 1 -21 15 -18 23 -20 23 -20 5 -2 -75 -60 221 -77 395 -7 61 -1 314
5 273 3 -17 22 -17 22 0 0 18 -30 44 -54 49 -36 6 -42 -57 -17 -185 11 -62 25
-157 31 -212 6 -55 15 -122 21 -149 6 -32 6 -52 0 -56 -7 -3 -4 -36 6 -90 22
-120 20 -180 -9 -203 -12 -11 -24 -14 -26 -9 -2 6 -19 77 -38 159 -19 81 -39
166 -45 187 -7 29 -7 41 2 47 9 5 6 60 -14 225 -14 121 -28 243 -31 272 l-5
53 42 19 c23 10 71 24 107 30 36 7 81 16 100 20 55 12 74 11 98 -6z m977 -120
c8 -38 14 -82 14 -99 l-1 -30 -9 35 c-5 19 -14 60 -20 90 -5 30 -13 64 -16 75
-4 15 -2 17 6 9 6 -5 18 -41 26 -80z m-1778 39 c-3 -10 -5 -4 -5 12 0 17 2 24
5 18 2 -7 2 -21 0 -30z m-1547 -89 c-25 -62 -30 -82 -21 -96 9 -14 -5 -54 -71
-210 -74 -177 -115 -261 -87 -180 19 54 3 47 -20 -10 -93 -223 -95 -227 -106
-216 -3 2 3 29 14 59 15 42 242 608 292 728 7 17 13 21 21 13 7 -7 1 -33 -22
-88z m3299 11 c-1 -44 -2 -46 -9 -20 -12 46 -12 103 0 85 5 -8 9 -37 9 -65z
m316 55 c3 -5 -13 -14 -35 -20 -23 -6 -48 -14 -56 -17 -10 -4 -14 2 -14 21 0
25 3 26 49 26 28 0 52 -4 56 -10z m-1644 -160 c6 -52 31 -207 55 -345 47 -263
65 -438 45 -420 -6 6 -15 35 -21 65 -6 30 -17 61 -25 69 -12 12 -15 11 -20
-12 -6 -24 9 -174 21 -219 7 -23 24 -23 24 -1 0 12 3 14 11 6 15 -15 1 -109
-19 -130 -16 -16 -17 -15 -22 13 -3 17 -11 29 -20 29 -12 0 -14 11 -12 49 1
35 -3 55 -15 68 -10 11 -24 60 -34 116 -15 84 -15 99 -3 113 26 29 15 87 -26
134 -19 21 -33 105 -49 292 -13 144 14 341 30 223 19 -137 72 -414 90 -475 12
-38 23 -76 25 -82 2 -7 7 -13 12 -13 4 0 -7 82 -24 183 -37 209 -62 454 -49
483 8 16 10 13 12 -16 2 -19 8 -78 14 -130z m-414 118 c-3 -8 -6 -5 -6 6 -1
11 2 17 5 13 3 -3 4 -12 1 -19z m-1741 -15 c-39 -105 -101 -244 -104 -234 -5
16 89 251 101 251 5 0 6 -8 3 -17z m38 -53 c-4 -16 -3 -46 1 -67 l7 -38 24 47
c32 62 47 70 28 13 -9 -25 -19 -43 -23 -40 -5 2 -14 -15 -20 -38 -19 -61 -104
-277 -108 -273 -7 7 29 119 58 185 28 62 37 101 22 101 -4 0 -20 -12 -36 -27
-17 -16 -28 -21 -25 -13 24 63 72 180 74 180 2 0 1 -13 -2 -30z m1596 -15 c15
-18 5 -35 -21 -35 -14 0 -19 7 -19 25 0 28 21 33 40 10z m2500 -114 c4 17 16
-11 42 -106 51 -183 58 -222 58 -340 0 -159 -35 -280 -116 -402 -39 -59 -78
-92 -144 -122 -81 -37 -107 -20 -30 19 77 39 159 190 186 343 28 162 14 390
-36 562 -26 91 -25 97 7 56 27 -35 27 -35 33 -10z m-2938 -76 c-9 -24 -18 -43
-20 -41 -6 7 21 86 29 86 4 0 1 -20 -9 -45z m344 -67 c-41 -132 -57 -168 -72
-168 -20 0 -18 14 21 131 30 90 59 139 73 125 2 -2 -8 -42 -22 -88z m-1394 39
c-6 -12 -23 -60 -38 -107 -23 -71 -50 -117 -62 -105 -4 3 32 94 70 178 17 37
33 65 36 62 3 -3 0 -15 -6 -28z m3476 -157 c0 -39 -16 33 -22 105 l-5 60 14
-70 c8 -38 14 -81 13 -95z m62 -40 c11 -85 34 -234 50 -330 44 -268 43 -365
-4 -347 -22 9 -20 34 3 40 16 4 18 12 14 58 -2 30 -9 85 -15 123 -10 66 -11
68 -27 49 -30 -38 -48 -35 -54 8 -7 51 3 125 14 107 5 -7 9 -32 9 -55 0 -24 5
-43 10 -43 15 0 12 79 -11 250 -23 174 -35 361 -20 320 6 -14 19 -95 31 -180z
m-3870 125 c0 -11 -74 -185 -77 -182 -5 6 62 187 70 187 4 0 7 -2 7 -5z m-515
-78 c8 -20 13 -37 11 -37 -9 0 -44 65 -39 73 7 11 10 7 28 -36z m4332 -69 c-3
-7 -5 -2 -5 12 0 14 2 19 5 13 2 -7 2 -19 0 -25z m-954 -150 c15 -95 27 -185
27 -200 0 -16 6 -28 15 -30 25 -5 -18 -64 -64 -88 -56 -28 -76 -25 -129 17
-26 21 -49 39 -52 41 -2 2 1 6 7 10 6 4 13 21 16 37 4 28 5 29 12 7 4 -12 28
-36 53 -53 41 -28 47 -29 58 -15 6 9 16 16 21 16 5 0 18 9 27 19 19 21 17 42
-22 276 -18 103 -19 135 -3 135 3 0 19 -78 34 -172z m-3137 26 c-3 -7 -1 -16
4 -19 6 -4 10 2 10 11 0 10 3 15 6 12 11 -12 -17 -88 -37 -99 -27 -14 -32 -8
-20 22 5 13 12 41 16 62 3 22 10 35 16 31 6 -3 8 -12 5 -20z m4081 -11 c-3
-10 -5 -4 -5 12 0 17 2 24 5 18 2 -7 2 -21 0 -30z m-2193 0 c-9 -36 -23 -63
-33 -63 -15 0 -20 12 -11 33 5 12 11 30 14 40 3 9 12 17 21 17 12 0 14 -6 9
-27z m-1638 -150 c-19 -48 -42 -113 -51 -145 -9 -31 -22 -62 -30 -68 -8 -7
-15 -9 -15 -5 0 11 79 230 102 282 35 82 31 28 -6 -64z m3841 10 c-3 -10 -5
-2 -5 17 0 19 2 27 5 18 2 -10 2 -26 0 -35z m-57 -56 c0 -16 -3 -17 -15 -7 -8
7 -15 24 -15 39 1 25 1 25 15 7 8 -11 15 -29 15 -39z m-998 21 c-7 -7 -12 -8
-12 -2 0 14 12 26 19 19 2 -3 -1 -11 -7 -17z m1039 -31 c-9 -9 -14 -8 -21 3
-6 9 -3 18 8 26 14 10 18 10 20 -3 2 -8 -1 -20 -7 -26z m-4170 -120 c-10 -9
-11 -8 -5 6 3 10 9 15 12 12 3 -3 0 -11 -7 -18z m3136 -53 c-3 -3 -12 -4 -19
-1 -8 3 -5 6 6 6 11 1 17 -2 13 -5z m-1007 -80 c-7 -21 -51 -124 -97 -229 -46
-104 -91 -208 -100 -230 -34 -81 -68 -125 -105 -138 -21 -7 -16 9 31 102 18
34 28 67 24 76 -3 10 -1 20 4 24 6 3 14 17 18 30 5 16 4 21 -4 17 -24 -15 -8
35 55 169 36 77 69 144 74 149 12 12 -1 -33 -24 -88 -28 -67 -17 -54 35 42 28
51 57 92 65 92 8 0 17 7 21 15 12 33 14 5 3 -31z m2365 26 c-10 -11 -20 -18
-23 -15 -7 6 18 35 31 35 5 0 2 -9 -8 -20z m-275 -65 c0 -16 -9 -19 -34 -9
-25 9 -19 24 9 24 16 0 25 -6 25 -15z m-1163 -11 c-3 -3 -12 -4 -19 -1 -8 3
-5 6 6 6 11 1 17 -2 13 -5z m133 -43 c0 -30 -41 -134 -63 -158 -11 -12 -49
-31 -86 -42 -36 -11 -103 -38 -149 -61 -46 -22 -89 -40 -97 -40 -15 0 -26 68
-11 77 5 4 39 15 75 25 l66 18 -71 -3 -71 -2 -10 38 -11 39 82 39 c90 42 250
88 309 89 30 0 37 -4 37 -19z m1209 -124 c16 -41 15 -41 -25 -10 -35 26 -36
28 -17 43 13 11 17 22 13 40 -4 14 -4 34 -1 45 3 12 8 -2 12 -35 4 -30 12 -68
18 -83z m-420 -38 c184 -14 215 -21 219 -43 3 -16 -1 -18 -25 -13 -152 33
-360 34 -518 2 -44 -9 -116 -22 -160 -30 -44 -8 -145 -29 -225 -46 -80 -17
-178 -34 -219 -39 -70 -9 -90 -19 -91 -47 0 -6 14 -16 32 -22 41 -15 29 -26
-47 -43 l-60 -14 3 53 c3 43 1 53 -12 53 -23 0 -20 27 5 41 47 25 138 50 194
55 33 2 105 8 160 13 131 12 134 12 178 12 36 -1 44 10 38 51 -3 25 310 35
528 17z m298 -31 c-3 -8 -6 -5 -6 6 -1 11 2 17 5 13 3 -3 4 -12 1 -19z m90 0
c-3 -8 -6 -5 -6 6 -1 11 2 17 5 13 3 -3 4 -12 1 -19z m-994 5 c-13 -2 -33 -2
-45 0 -13 2 -3 4 22 4 25 0 35 -2 23 -4z m-116 -19 c-3 -3 -12 -4 -19 -1 -8 3
-5 6 6 6 11 1 17 -2 13 -5z m-727 -34 c0 -11 -4 -20 -9 -20 -11 0 -22 26 -14
34 12 12 23 5 23 -14z m1566 5 c49 -9 93 -20 97 -24 5 -5 6 -18 2 -30 -6 -19
-14 -21 -168 -23 -89 -2 -155 -6 -147 -9 8 -4 71 -12 140 -18 210 -19 206 -29
-12 -30 -187 -1 -372 -16 -540 -45 -60 -10 -80 -10 -88 -1 -11 14 38 27 177
49 91 15 150 35 125 44 -7 2 -73 -4 -148 -13 -74 -10 -138 -15 -141 -11 -4 3
6 6 21 6 43 0 64 16 59 44 -4 21 -1 26 21 31 14 3 38 8 54 11 145 33 412 42
548 19z m-1521 -16 c-4 -5 -13 -9 -22 -9 -13 0 -13 3 -3 15 13 15 35 11 25 -6z
m572 15 c-3 -3 -12 -4 -19 -1 -8 3 -5 6 6 6 11 1 17 -2 13 -5z m1238 -17 c3
-12 1 -34 -5 -47 -9 -23 -10 -22 -7 13 2 20 -1 37 -5 37 -4 0 -8 5 -8 10 0 20
20 10 25 -13z m-1679 -38 c-1 -16 6 -44 15 -63 9 -19 14 -37 11 -40 -11 -12
-51 -5 -72 12 -19 15 -21 22 -11 40 16 30 14 40 -11 44 -21 4 -19 6 12 19 49
22 58 20 56 -12z m617 -16 c-7 -2 -19 -2 -25 0 -7 3 -2 5 12 5 14 0 19 -2 13
-5z m-1747 -34 c3 -6 19 -9 35 -5 30 6 40 -8 13 -18 -25 -10 -82 -7 -89 4 -3
6 -3 15 0 20 8 13 32 13 41 -1z m1631 5 c-3 -3 -12 -4 -19 -1 -8 3 -5 6 6 6
11 1 17 -2 13 -5z m-72 -24 c-27 -12 -43 -12 -25 0 8 5 22 9 30 9 10 0 8 -3
-5 -9z m242 4 c-3 -3 -12 -4 -19 -1 -8 3 -5 6 6 6 11 1 17 -2 13 -5z m-50 -10
c-3 -3 -12 -4 -19 -1 -8 3 -5 6 6 6 11 1 17 -2 13 -5z m-92 -24 c-11 -5 -27
-9 -35 -9 -9 0 -8 4 5 9 11 5 27 9 35 9 9 0 8 -4 -5 -9z m-88 -26 c-3 -3 -12
-4 -19 -1 -8 3 -5 6 6 6 11 1 17 -2 13 -5z m-2581 -75 c61 -30 123 -59 140
-66 16 -7 51 -21 77 -33 27 -11 53 -17 58 -14 12 7 110 -24 128 -41 7 -7 11
-18 7 -23 -9 -15 -76 3 -198 52 -59 24 -109 39 -111 33 -1 -5 -20 -1 -42 11
-29 15 -34 21 -20 22 11 0 -20 19 -70 42 -89 40 -125 63 -125 79 0 11 25 1
156 -62z m2924 57 c0 -9 -16 -16 -43 -20 -24 -4 -97 -20 -162 -36 -66 -16
-120 -28 -122 -26 -8 7 126 51 221 72 56 12 102 22 104 23 1 0 2 -5 2 -13z
m-960 -11 c9 0 16 -11 18 -27 3 -24 0 -28 -22 -28 -24 0 -26 -4 -28 -42 -1
-41 -1 -41 -5 -8 -6 42 6 127 15 114 4 -5 14 -9 22 -9z m1027 9 c-3 -3 -12 -4
-19 -1 -8 3 -5 6 6 6 11 1 17 -2 13 -5z m-603 -43 c7 -11 -22 -23 -36 -15 -6
4 -5 10 3 15 18 11 26 11 33 0z m-1670 -17 c5 -12 90 -41 136 -45 14 -1 36 1
50 5 15 4 39 2 55 -5 17 -6 46 -15 65 -19 75 -16 -74 -9 -203 9 -131 19 -152
26 -142 53 7 18 32 19 39 2z m2781 -14 c13 -6 15 -9 5 -9 -8 0 -22 4 -30 9
-18 12 -2 12 25 0z m305 6 c0 -3 -4 -8 -10 -11 -5 -3 -10 -1 -10 4 0 6 5 11
10 11 6 0 10 -2 10 -4z m-558 -25 c10 -4 -39 -8 -109 -9 -70 -1 -137 -5 -148
-9 -17 -5 -18 -4 -7 9 7 8 22 13 35 11 12 -2 33 0 47 6 25 11 145 6 182 -8z
m348 -26 c20 -21 20 -23 4 -19 -11 3 -32 16 -48 29 l-28 23 25 -5 c14 -3 35
-16 47 -28z m-1560 -29 c0 -26 -6 -18 -14 19 -5 22 -4 26 4 15 5 -8 10 -24 10
-34z m1273 37 c-7 -2 -19 -2 -25 0 -7 3 -2 5 12 5 14 0 19 -2 13 -5z m-183
-28 c-92 -16 -130 -18 -130 -6 0 13 38 18 130 18 l75 1 -75 -13z m-197 -12
c-13 -2 -23 -11 -23 -18 0 -19 -96 -29 -151 -16 l-44 11 40 -5 c25 -3 45 1 55
9 8 8 29 16 45 19 40 5 107 6 78 0z m462 -3 c-11 -5 -27 -9 -35 -9 -9 0 -8 4
5 9 11 5 27 9 35 9 9 0 8 -4 -5 -9z m160 -66 c36 -81 22 -97 -135 -148 -186
-61 -389 -106 -547 -121 -40 -4 -73 -12 -73 -16 0 -5 -7 -9 -16 -9 -8 0 -13 4
-10 9 3 4 -56 11 -132 15 -168 9 -223 20 -257 52 -23 22 -27 31 -21 62 7 45
62 97 84 80 17 -14 330 -4 506 17 135 15 166 14 99 -4 -50 -14 -82 -46 -64
-64 19 -19 159 -21 243 -4 118 25 188 55 236 102 23 24 42 52 42 64 0 38 20
22 45 -35z m-2368 40 c-3 -3 -12 -4 -19 -1 -8 3 -5 6 6 6 11 1 17 -2 13 -5z
m2090 0 c-3 -3 -12 -4 -19 -1 -8 3 -5 6 6 6 11 1 17 -2 13 -5z m-2172 -20 c20
-21 19 -43 -5 -79 -11 -16 -20 -38 -20 -49 0 -12 -5 -16 -16 -12 -10 4 -23 -3
-34 -16 -15 -18 -20 -20 -33 -10 -27 23 -28 64 -2 88 21 20 23 25 12 48 -10
22 -12 23 -15 7 -5 -28 -37 -54 -59 -47 -14 4 -18 16 -18 46 l0 39 87 0 c65 0
92 -4 103 -15z m1623 1 c-2 -1 -30 -5 -63 -8 l-60 -6 50 13 c41 10 85 11 73 1z
m509 9 c-3 -3 -12 -4 -19 -1 -8 3 -5 6 6 6 11 1 17 -2 13 -5z m-40 -10 c-3 -3
-12 -4 -19 -1 -8 3 -5 6 6 6 11 1 17 -2 13 -5z m-2024 -11 c-7 -2 -19 -2 -25
0 -7 3 -2 5 12 5 14 0 19 -2 13 -5z m1974 1 c-3 -3 -12 -4 -19 -1 -8 3 -5 6 6
6 11 1 17 -2 13 -5z m-1936 -22 c-5 -10 -18 -25 -28 -33 -17 -13 -17 -13 0 7
9 11 17 26 17 32 0 7 5 12 10 12 7 0 7 -6 1 -18z m1896 12 c-3 -3 -12 -4 -19
-1 -8 3 -5 6 6 6 11 1 17 -2 13 -5z m-2518 -33 c47 -16 106 -32 131 -36 80
-12 115 -51 69 -76 -20 -10 -43 -8 -181 17 -21 4 -28 2 -28 -10 0 -18 -43 -39
-68 -34 -17 3 -40 60 -41 101 -1 28 14 67 25 67 3 0 45 -13 93 -29z m1388 7
c-3 -8 -6 -5 -6 6 -1 11 2 17 5 13 3 -3 4 -12 1 -19z m1070 16 c-3 -3 -12 -4
-19 -1 -8 3 -5 6 6 6 11 1 17 -2 13 -5z m298 -4 c-27 -12 -43 -12 -25 0 8 5
22 9 30 9 10 0 8 -3 -5 -9z m65 0 c-8 -5 -19 -10 -25 -10 -5 0 -3 5 5 10 8 5
20 10 25 10 6 0 3 -5 -5 -10z m-567 -7 c-7 -2 -19 -2 -25 0 -7 3 -2 5 12 5 14
0 19 -2 13 -5z m140 0 c-7 -2 -19 -2 -25 0 -7 3 -2 5 12 5 14 0 19 -2 13 -5z
m477 3 c0 -2 -8 -10 -17 -17 -16 -13 -17 -12 -4 4 13 16 21 21 21 13z m-655
-16 c40 -6 43 -7 15 -8 -19 0 -57 3 -85 8 -40 6 -43 7 -15 8 19 0 58 -3 85 -8z
m118 3 c-7 -2 -19 -2 -25 0 -7 3 -2 5 12 5 14 0 19 -2 13 -5z m-568 -30 c-17
-16 -41 -39 -53 -53 -20 -21 -22 -22 -13 -4 15 31 67 84 82 84 8 0 0 -12 -16
-27z m394 11 c2 -2 -38 -3 -90 -3 -69 1 -85 4 -59 9 32 7 139 3 149 -6z m586
6 c-11 -5 -27 -9 -35 -9 -9 0 -8 4 5 9 11 5 27 9 35 9 9 0 8 -4 -5 -9z m-65
-16 c0 -2 -17 -4 -37 -3 -29 0 -33 2 -18 8 18 7 55 4 55 -5z m-1153 -116 c-3
-8 -6 -5 -6 6 -1 11 2 17 5 13 3 -3 4 -12 1 -19z m-1047 -8 c0 -5 -2 -10 -4
-10 -3 0 -8 5 -11 10 -3 6 -1 10 4 10 6 0 11 -4 11 -10z m983 -25 c-3 -9 -8
-14 -10 -11 -3 3 -2 9 2 15 9 16 15 13 8 -4z m-32 -17 c11 -21 11 -22 -4 -9
-10 7 -17 17 -17 22 0 15 9 10 21 -13z m846 -64 c-3 -3 -12 -4 -19 -1 -8 3 -5
6 6 6 11 1 17 -2 13 -5z"/>
<path d="M4030 3136 c0 -3 16 -12 35 -20 27 -12 35 -21 35 -41 0 -15 4 -24 10
-20 27 17 -8 70 -52 81 -16 3 -28 3 -28 0z"/>
<path d="M4020 3071 c0 -10 25 -21 48 -21 12 1 10 5 -8 15 -29 17 -40 18 -40
6z"/>
<path d="M3580 2984 c0 -17 22 -14 28 4 2 7 -3 12 -12 12 -9 0 -16 -7 -16 -16z"/>
<path d="M3577 2930 c4 -17 2 -19 -13 -13 -17 6 -17 5 -6 -10 8 -8 20 -13 28
-10 15 6 17 13 8 37 -9 23 -23 20 -17 -4z"/>
<path d="M3942 2853 c-12 -22 2 -63 21 -63 20 0 37 21 36 45 0 19 -1 19 -9 -2
-5 -13 -16 -23 -25 -23 -21 0 -19 37 3 49 16 10 16 10 0 11 -10 0 -21 -8 -26
-17z"/>
<path d="M3386 2831 c-3 -5 1 -12 10 -15 20 -8 29 -1 19 13 -8 13 -22 14 -29
2z"/>
<path d="M4094 2804 c-11 -44 35 -59 77 -26 24 20 21 52 -6 52 -13 0 -13 -3
-3 -20 11 -17 10 -22 -2 -30 -25 -17 -45 -7 -45 23 1 34 -13 35 -21 1z"/>
<path d="M3726 2764 c-27 -26 -20 -54 12 -53 27 0 27 0 3 10 -22 9 -23 10 -7
34 19 28 15 33 -8 9z"/>
<path d="M3380 2655 c0 -43 -23 -47 -44 -7 -15 27 -23 11 -10 -22 7 -19 45
-21 62 -4 14 14 16 68 2 68 -5 0 -10 -16 -10 -35z"/>
<path d="M1742 2748 c6 -18 28 -21 28 -4 0 9 -7 16 -16 16 -9 0 -14 -5 -12
-12z"/>
<path d="M1700 2670 c0 -6 7 -13 15 -17 24 -9 27 1 5 15 -13 8 -20 8 -20 2z"/>
<path d="M1867 2633 c-13 -12 -7 -20 14 -19 12 1 24 -5 27 -13 3 -9 -1 -11
-17 -6 -16 5 -20 3 -15 -9 3 -9 10 -16 14 -16 43 0 57 53 18 64 -29 7 -33 7
-41 -1z"/>
<path d="M1637 2613 c-12 -12 -7 -60 7 -73 24 -19 61 -8 64 18 6 39 -47 80
-71 55z m51 -41 c2 -14 -2 -22 -11 -22 -19 0 -40 26 -32 40 11 18 40 6 43 -18z"/>
<path d="M2333 2582 c15 -9 25 -22 22 -29 -2 -8 4 -13 15 -13 11 0 20 4 20 9
0 14 -50 51 -69 51 -10 0 -6 -6 12 -18z"/>
<path d="M2173 2566 c4 -10 1 -13 -9 -9 -7 3 -14 1 -14 -5 0 -16 31 -23 46
-11 11 9 11 15 3 25 -15 18 -33 18 -26 0z"/>
<path d="M2580 2502 c0 -5 7 -13 16 -16 10 -4 14 -1 12 6 -5 15 -28 23 -28 10z"/>
<path d="M2536 2481 c-7 -10 3 -41 13 -41 3 0 6 11 6 25 0 25 -9 33 -19 16z"/>
<path d="M4305 1425 c10 -84 42 -245 50 -253 10 -10 -5 111 -26 212 -22 105
-35 126 -24 41z"/>
<path d="M4160 1249 c0 -27 24 -100 36 -110 18 -14 18 -11 -3 61 -9 33 -20 60
-25 60 -4 0 -8 -5 -8 -11z"/>
<path d="M3873 2428 c-32 -16 -38 -65 -24 -195 17 -154 86 -503 110 -559 30
-66 59 -104 76 -97 8 3 15 11 15 19 0 8 -6 11 -15 8 -16 -7 -50 42 -65 96 -18
62 -79 380 -100 517 -21 145 -18 179 22 185 13 2 23 9 23 17 0 19 -15 22 -42
9z"/>
<path d="M3946 2382 c-4 -10 -4 -28 0 -38 30 -93 47 -101 27 -12 -17 72 -19
76 -27 50z"/>
<path d="M4740 2013 c0 -56 67 -386 69 -342 1 21 -27 207 -43 286 -14 66 -26
92 -26 56z"/>
<path d="M4543 1685 c0 -22 2 -30 4 -17 2 12 2 30 0 40 -3 9 -5 -1 -4 -23z"/>
<path d="M1493 2365 c-22 -15 -55 -91 -66 -153 -10 -53 9 -28 38 49 42 110 80
122 191 58 71 -40 84 -54 84 -90 0 -18 4 -28 10 -24 12 7 13 65 2 81 -4 6 -42
30 -85 53 -85 44 -137 52 -174 26z"/>
<path d="M1550 2267 c-13 -7 -35 -30 -47 -52 -48 -84 -239 -700 -231 -743 2
-9 18 30 36 88 18 58 71 223 118 367 92 282 114 327 163 321 42 -5 55 -46 44
-139 -8 -72 -2 -104 11 -61 28 89 25 184 -7 210 -22 18 -61 23 -87 9z"/>
<path d="M1652 1938 c-96 -221 -184 -446 -273 -702 -59 -167 -72 -229 -32
-151 48 95 359 933 349 942 -2 2 -22 -38 -44 -89z"/>
<path d="M1110 1363 c-79 -170 -96 -258 -65 -338 25 -67 73 -100 146 -100 36
0 63 5 71 14 11 11 8 12 -17 7 -38 -7 -131 37 -160 77 -32 45 -27 140 14 252
43 118 61 175 55 175 -2 0 -22 -39 -44 -87z"/>
<path d="M1024 1356 c-10 -26 4 -46 31 -46 23 0 26 4 23 28 -3 31 -44 45 -54
18z"/>
<path d="M1804 1228 c-9 -18 -40 -85 -68 -149 -67 -152 -78 -168 -105 -151
-30 18 -40 15 -33 -10 7 -30 20 -38 60 -38 31 0 35 4 64 67 37 81 111 303 105
310 -3 3 -13 -10 -23 -29z"/>
<path d="M675 1045 c11 -9 29 -21 40 -26 l20 -10 -20 16 c-11 9 -29 21 -40 26
l-20 10 20 -16z"/>
<path d="M740 1006 c0 -3 9 -10 20 -16 11 -6 20 -8 20 -6 0 3 -9 10 -20 16
-11 6 -20 8 -20 6z"/>
<path d="M1107 2125 c-24 -50 -20 -58 4 -12 11 22 19 41 17 43 -3 2 -12 -12
-21 -31z"/>
<path d="M1075 2049 c-4 -6 -5 -12 -2 -15 2 -3 7 2 10 11 7 17 1 20 -8 4z"/>
<path d="M1056 2005 c-9 -26 -7 -32 5 -12 6 10 9 21 6 23 -2 3 -7 -2 -11 -11z"/>
<path d="M2467 1034 c-16 -31 -25 -59 -22 -62 6 -7 4 -10 38 61 15 31 23 57
19 57 -4 0 -20 -25 -35 -56z"/>
<path d="M2387 964 c-37 -74 -33 -83 4 -10 17 32 29 60 27 62 -2 2 -16 -21
-31 -52z"/>
<path d="M2382 866 c-17 -38 -15 -55 4 -28 8 12 14 30 12 39 -2 13 -6 10 -16
-11z"/>
<path d="M3820 3876 c12 -16 11 -20 -10 -37 -34 -26 -55 -20 -55 14 1 24 -1
25 -14 13 -12 -13 -12 -18 3 -40 31 -49 106 -30 106 26 0 9 -10 23 -22 29 -21
11 -22 11 -8 -5z"/>
<path d="M3092 3818 c-5 -7 -22 -38 -38 -68 -22 -44 -28 -69 -28 -124 -1 -90
19 -101 27 -14 4 45 16 83 46 140 34 67 37 78 22 78 -10 0 -23 -6 -29 -12z"/>
<path d="M3285 3765 c10 -59 28 -81 20 -25 -3 25 -11 50 -17 55 -7 7 -8 -2 -3
-30z"/>
<path d="M2203 3755 c-36 -16 -53 -42 -53 -83 0 -35 34 -82 58 -81 10 0 12 3
5 5 -7 3 -17 21 -23 40 -10 28 -9 40 7 72 11 24 26 38 41 40 12 2 20 8 17 13
-8 12 -13 11 -52 -6z"/>
<path d="M2404 3618 c1 -25 -29 -37 -47 -19 -9 9 -8 14 3 22 12 8 12 10 -4 7
-30 -5 -30 -25 -1 -44 34 -22 78 -6 73 28 -4 29 -25 34 -24 6z"/>
<path d="M2740 3610 c0 -3 7 -25 14 -50 13 -41 15 -42 15 -14 1 16 -6 39 -14
50 -8 10 -14 17 -15 14z"/>
<path d="M2790 3561 c0 -22 32 -61 50 -61 15 0 13 3 -20 45 -26 32 -30 35 -30
16z"/>
<path d="M1486 3561 c-9 -15 20 -68 47 -86 29 -18 139 -57 145 -50 10 10 -20
32 -59 44 -25 8 -57 30 -84 57 -25 26 -46 41 -49 35z"/>
<path d="M1790 3531 c-12 -8 -7 -11 20 -11 41 -1 101 -26 165 -70 68 -47 119
-67 259 -100 70 -16 137 -35 149 -41 22 -12 22 -12 3 10 -12 13 -55 32 -105
47 -133 39 -157 49 -264 111 -83 47 -110 58 -156 60 -31 2 -63 -1 -71 -6z"/>
<path d="M3094 3494 c-17 -24 -33 -124 -20 -124 10 0 66 131 60 141 -9 16 -23
10 -40 -17z"/>
<path d="M3477 3473 c-4 -3 -7 -16 -7 -27 1 -20 2 -20 14 -3 18 24 30 21 23
-5 -6 -20 -5 -20 11 -4 16 16 16 18 -2 32 -22 16 -30 17 -39 7z"/>
<path d="M4054 3455 c15 -11 17 -18 9 -26 -17 -17 -49 -6 -45 15 2 11 -1 15
-7 11 -6 -3 -11 -15 -11 -26 0 -16 7 -19 39 -19 22 0 43 4 46 10 9 15 -14 50
-33 50 -15 -1 -15 -2 2 -15z"/>
<path d="M1241 3448 c-2 -49 36 -65 63 -26 18 26 10 41 -8 15 -18 -23 -35 -21
-46 6 -6 15 -9 17 -9 5z"/>
<path d="M3246 3372 c-21 -33 22 -90 58 -76 25 10 19 20 -11 19 -24 0 -29 5
-33 35 -3 24 -8 31 -14 22z"/>
<path d="M4200 3334 c0 -5 22 -33 48 -60 30 -31 66 -86 95 -144 26 -52 47 -85
47 -74 0 40 -72 165 -131 228 -32 33 -58 56 -59 50z"/>
<path d="M1944 3295 c-9 -23 3 -45 24 -45 25 0 46 25 38 45 -8 22 -28 18 -21
-4 3 -11 2 -22 -3 -25 -13 -8 -35 20 -27 34 3 5 4 10 0 10 -3 0 -8 -7 -11 -15z"/>
<path d="M2656 3274 c-9 -22 2 -34 29 -34 14 0 44 -4 67 -10 24 -5 57 -12 73
-15 19 -4 52 -29 91 -70 42 -43 60 -57 56 -42 -19 78 -141 157 -279 181 -23 4
-33 1 -37 -10z"/>
<path d="M1566 3251 c5 -24 3 -31 -10 -31 -9 0 -16 8 -16 21 0 11 -4 17 -10
14 -16 -10 -12 -42 6 -49 10 -4 25 1 36 11 20 18 21 54 1 61 -9 2 -11 -5 -7
-27z"/>
<path d="M3390 3250 c-11 -7 -9 -11 13 -19 15 -6 36 -25 47 -43 l20 -33 0 31
c0 19 -9 39 -23 52 -26 24 -35 26 -57 12z"/>
<path d="M3257 3158 c-8 -31 4 -68 29 -88 16 -13 17 -13 9 0 -5 8 -14 37 -20
65 -10 45 -12 47 -18 23z"/>
<path d="M2602 3140 c-12 -19 -22 -48 -22 -63 0 -41 28 -94 61 -118 38 -27 56
-14 22 15 -25 22 -28 32 -33 112 l-5 89 -23 -35z m-5 -82 c-3 -7 -5 -2 -5 12
0 14 2 19 5 13 2 -7 2 -19 0 -25z"/>
<path d="M673 3077 c2 -6 28 -19 58 -29 69 -23 173 -74 223 -110 26 -18 43
-25 49 -19 16 16 -18 57 -68 81 -63 30 -267 90 -262 77z"/>
<path d="M3350 3065 c-37 -10 -41 -13 -24 -19 23 -7 68 6 79 23 7 13 5 12 -55
-4z"/>
<path d="M515 3015 c-60 -30 -158 -114 -134 -115 9 0 27 8 40 19 39 30 90 54
154 71 39 10 60 21 60 30 0 26 -65 23 -120 -5z"/>
<path d="M3760 2992 c0 -27 15 -52 32 -52 5 0 4 9 -2 19 -5 11 -10 29 -10 40
0 12 -4 21 -10 21 -5 0 -10 -13 -10 -28z"/>
<path d="M560 2966 c-56 -16 -80 -28 -104 -55 -31 -34 -14 -33 55 4 50 27 76
35 118 35 46 0 52 2 41 15 -15 18 -48 18 -110 1z"/>
<path d="M1939 2944 c-17 -21 -17 -107 0 -128 23 -28 30 -17 15 21 -12 28 -13
45 -5 77 12 47 9 53 -10 30z"/>
<path d="M2708 2933 c12 -2 30 -2 40 0 9 3 -1 5 -23 4 -22 0 -30 -2 -17 -4z"/>
<path d="M4391 2705 c-1 -53 15 -108 40 -137 18 -20 20 -21 14 -3 -4 11 -17
56 -30 100 -21 72 -23 76 -24 40z"/>
<path d="M2933 2704 c-12 -19 -14 -30 -6 -43 12 -19 52 -25 73 -12 22 15 6 23
-24 11 -32 -12 -44 6 -26 40 9 18 18 21 41 16 16 -3 29 -1 29 4 0 6 -16 10
-35 10 -26 0 -39 -6 -52 -26z"/>
<path d="M1387 2599 c-35 -114 -58 -142 -106 -136 -20 3 -46 8 -59 12 -17 6
-21 4 -17 -7 9 -22 50 -38 94 -38 33 0 42 5 64 39 32 48 59 140 55 183 -3 28
-7 21 -31 -53z"/>
</g>
</svg>
